# 3ds Max Wavefront OBJ Exporter v0.97b - (c)2007 guruware
# File Created: 27.05.2016 18:10:49

mtllib dice.mtl


# object dice


v  -30.00000000 0.00000000 30.00000000
v  -30.00000000 0.00000000 -30.00000000
v  30.00000000 0.00000000 -30.00000000
v  30.00000000 0.00000000 30.00000000
v  -30.00000000 60.00000000 30.00000000
v  30.00000000 60.00000000 30.00000000
v  30.00000000 60.00000000 -30.00000000
v  -30.00000000 60.00000000 -30.00000000
# 8 vertices

vn 0.00000000 -1.00000000 -0.00000000
vn 0.00000000 1.00000000 -0.00000000
vn 0.00000000 0.00000000 1.00000000
vn 1.00000000 0.00000000 -0.00000000
vn 0.00000000 0.00000000 -1.00000000
vn -1.00000000 0.00000000 -0.00000000
# 6 vertex normals

vt -0.00000002  0.00000006 # 6번째 이미지 즉 7
vt 0.66286560 0.00000003
vt 0.66286566 0.50000000
vt -0.00000002  0.50000012

vt 1.00183487 0.00000006 # 4번째 이미지 즉 5
vt 1.00183487 0.50000000
vt 0.33425081 0.50000000
vt 0.33425081 0.00000006

vt 1.00183499 -0.00000002 #1번째 이미지 즉 1
vt 1.00183487 0.48775199
vt 0.33425081 0.48775196
vt 0.33425081 -0.00000002

vt 0.66447806 0.49891663 #2번째 이미지 즉 2
vt 0.66447806 1.00000000
vt 0.33333333 1.00000000
vt 0.33333333 0.49891669

vt 1.00000000 1.00000000 #3번째 이미지 즉 4
vt 0.66335702 1.00000000
vt 0.66335702 0.50000000
vt 1.00000000 0.49999994

vt 0.33280861 0.00000006 # 5번째 이미지 즉 6
vt 0.66614199 0.00000006
vt 0.66614199 0.50000000
vt 0.33280861 0.50000000
# 24 texture coords

g dice
usemtl dice
s off
f 1/2/1 2/1/1 3/4/1 4/3/1
f 7/8/2 8/7/2 5/6/2 6/5/2
f 1/9/3 4/10/3 6/11/3 5/12/3
f 4/13/4 3/14/4 7/15/4 6/16/4
f 3/17/5 2/18/5 8/19/5 7/20/5
f 2/21/6 1/22/6 5/23/6 8/24/6
# 6 polygons
